<svg width="25" height="26" viewBox="0 0 25 26" fill="none" xmlns="http://www.w3.org/2000/svg">
    <path d="M19.729 18.6867L25 23.9438L23.2586 25.6811L17.9888 20.4227C16.028 21.9908 13.5892 22.8437 11.0761 22.8401C4.9621 22.8401 0 17.8899 0 11.7906C0 5.69122 4.9621 0.741028 11.0761 0.741028C17.1901 0.741028 22.1522 5.69122 22.1522 11.7906C22.1558 14.2976 21.3009 16.7306 19.729 18.6867ZM17.2603 17.7757C18.8221 16.1734 19.6944 14.0256 19.6909 11.7906C19.6909 7.04172 15.8351 3.19648 11.0761 3.19648C6.31584 3.19648 2.46136 7.04172 2.46136 11.7906C2.46136 16.5382 6.31584 20.3847 11.0761 20.3847C13.3165 20.3882 15.4695 19.518 17.0757 17.9599L17.2603 17.7757Z" fill="black"/>
</svg>
